<?xml version="1.0" encoding="utf-8"?>
<!DOCTYPE svg PUBLIC "-//W3C//DTD SVG 1.1//EN" "http://www.w3.org/Graphics/SVG/1.1/DTD/svg11.dtd">
<svg version="1.1" id="hung" xmlns="http://www.w3.org/2000/svg" xmlns:xlink="http://www.w3.org/1999/xlink" x="0px" y="0px"
	 width="128" height="128" viewBox="0 0 232.2 232.2" xml:space="preserve">
<g>

		<path fill-rule="evenodd" clip-rule="evenodd" fill="#ED1C24" stroke="#30307C" stroke-width="3.2695" stroke-miterlimit="22.9256" d="
		M116.3,179.5c48.9,0,88.7-39.9,88.7-88.7c0-48.9-39.9-88.7-88.7-88.7C67.4,2.1,27.6,42,27.6,90.8
		C27.6,139.7,67.4,179.5,116.3,179.5z"/>

		<path fill-rule="evenodd" clip-rule="evenodd" fill="none" stroke="#30307C" stroke-width="4.2009" stroke-miterlimit="22.9256" d="
		M116.1,230.1c62.8,0,114-51.2,114-114s-51.2-114-114-114s-114,51.2-114,114S53.3,230.1,116.1,230.1z"/>
	<g>
		<path fill-rule="evenodd" clip-rule="evenodd" fill="#30307C" d="M114.8,180.2c4.2,0,9.4-1.3,12-4.5c3.2-5.4,4.8-12.6,2.9-18.6
			c-2.2-3.9-7.4-5.3-10.8-4.8c-3.8,1-3.9,1.4-6.3,3.5c-1.5,1.9-2,5.2-1,7.9c0.5,1.4,2.3,2.5,3.8,2.5c1.3,0,2.4-0.4,3.5-1.2
			c0.6-0.4,1-1.7,0.9-2.9c-0.3-1.9-1.5-2.5-2.4-4.2c0.4-1,1.2-1.9,1.8-2.2c0.6-0.4,1.4-0.6,2.2-0.4c1.4,0.4,2.9,1.7,3.6,3.1
			c1.2,4,0.1,8.4-1.9,11.1c-1,0.9-1,0.9-1.7,1.4c-5.5,1.3-10-1.4-13.5-4.8c-7.1-8.4-10.6-17-16.7-25.4c3.1,9.9,9.3,22.4,14.2,32.2
			C108.8,176.3,111,179,114.8,180.2z"/>
		<path fill-rule="evenodd" clip-rule="evenodd" fill="#30307C" d="M113.7,53.7c7.6-0.5,13.6-0.6,19.7-8.9c3.7-5,4.2-8.3,4.1-12
			c0-0.5,0.1,0-0.6-0.1c-1.8,4.7-8,10-13,12c-6.8,2.4-11.6,1.4-17.6-0.7c-5.2-2.5-9.9-6.3-12.4-11.2c-0.4-0.1-0.4-0.1-0.6,0.1
			c0.6,6.6,4.2,11.8,7.9,16c2.8,1.7,5.8,3.1,9.4,4.2C111.7,52.9,112.5,53.2,113.7,53.7z"/>
		<path fill-rule="evenodd" clip-rule="evenodd" fill="#30307C" d="M114.3,38.3c3.9,0.5,7.1-1.2,9.9-2.9c3.2-2.4,5.5-6.6,5-11.1
			c-1.2-4.8-3.8-8.3-7.7-9.6c-1.2,0-1.9-0.3-2.7-1c-0.6-0.1-1.2-0.6-1.5-1.7c1.7-2.2,1.5-5,0-7.3c0-0.3,0-0.6,0-1.3l-0.8-1.4
			c-1,1.9-2.2,3.5-0.7,5.5l-2.8,7.8c-3.5,2.4-8.4,3-9.6,7.7c-1.5,3.7,0.4,7.4,2,9.9c1,1.2,1,1.7,1.7,2.4
			C109.2,36.9,111.3,38.1,114.3,38.3L114.3,38.3z M115.3,31c-1.4-0.1-2.6-1.3-3.5-2.2c-0.9-2-0.5-4.2-0.5-6.8c1.2-1.3,2.4-3.8,4-4.2
			l2,0.5c1.7,0.6,2.9,1.7,3.5,3.2c1.2,2.7,1.2,5.9,0,7.8L115.3,31z"/>
		<path fill-rule="evenodd" clip-rule="evenodd" fill="#30307C" d="M130.5,154.2c1.7-3.5-0.7-8.1-2-11.4c-1.3-1.9-2.2-2.8-3.4-4.1
			c4.2-4.7,9.1-11,6.6-18.1c-0.6-2.3-2-3.7-3-5.5l-2.9-3.1c0-0.1,0.4-0.4,0.5-0.6c7.1-5.9,14.3-14.3,13.2-24.8
			c-0.2-0.9-0.5-1.9-1-2.5l-1.9-3c-3-2.7-6.8-5.6-15.2-1.9c0.8-0.4-5.5,3.6-6.2,5.2c-0.9,1.2-1.5,1.7-2.7,3
			c-4.4-2.7-9.9-4.8-15.6-6.2c-0.5-0.2-0.6-0.7-0.6-0.7c0.3-4.8,5.3-7.3,8.7-10.7c9.7-6,22.5,2.5,30.7-5.9c2-2,3.2-3.7,4.4-5.8
			c0-0.3,0-0.8-0.1-1.2c-15.7,0.4-32.1,0.6-47.2-2.2c-0.6,0.3-0.7,0.5-1.1,1.2c0.7,5.4,5.4,8.8,9.9,10.6c0.2,0.2,0.2,0.4,0.4,0.9
			c-1.2,1.9-2.4,4-3.5,5.9c-2.2,3-4.2,5-4.9,8.6l-4.7,4.8l0.8,1.8c8.8,1,16.3,3.5,22.4,10.6c1.9,2.8,4.2,6.4,4.5,9.8
			c-0.6,0.4-0.2,0.1-0.2,0.1c-3.4,0.7-8.1,1-11.5,2.7c-2,1-3.4,1.7-4.9,3.4c-2.9,3.7-2.8,8.4-3.5,13c-0.6,4.1-1.7,8.4-2.4,11.8
			c0.8-0.1,7.6-2.9,7.9-4.6c1.2-5.3,0.4-11.7,5.9-15.1c5.2-3,11-1.4,15.9-0.1c0.5,0.3,0.9,0.6,0.9,0.6c2.9,3.9,3.5,9.3,1,14.3
			c-0.6,1.2-1.4,2.5-2.5,3c-4.9-2.7-10.6-3.5-15.9-1.2c-3.7,1.3-7.6,4.4-7.9,8.1c0.1,0.2-1,0.7-0.1,0.2c3.2-4,11.1-4,15.7-3.2
			c3.7,1,5.5,2.7,8.3,4.2c3,3,5.9,5.6,6.3,10.7L130.5,154.2L130.5,154.2z M124.1,111.4l-5.5-2.3c0-7.2-0.9-14.3-3.7-20.1
			c0.9-1.6,1.5-1.7,2.2-2c1.3-0.6,2.7-1.2,4.5-1.4c5.1,0,7.6,0.9,9.4,3.7c1.7,7.7-1.7,16.8-6.8,21.7L124.1,111.4z"/>
	</g>
</g>
</svg>
